# xmcd
#
# Track frame offsets: 
#        150
#        18073
#        37383
#        58854
#        74420
#        91782
#        109353
#        121805
#        139869
#        162144
#        176540
#        189204
#        206258
#        222187
#        239451
#        252875
#        267072
#        286336
#        303505
#        325757
#
# Disc length: 4612 seconds
#
# Revision: 1
# Processed by: cddbd v1.5.2PL0 Copyright (c) Steve Scherf et al.
# Submitted via: ExactAudioCopy v0.95b4
#
DISCID=1c120214
DTITLE=Various Artist - Ministry Of Sound - Cream 15 Years [CD2)
DYEAR=2008
DGENRE=Electronic
TTITLE0=Robert Owens - I'll Be Your Friend
TTITLE1=Fire Island - If You Should Need A Friend
TTITLE2=Frankie Knuckles feat. Jamie Principle - Your Love
TTITLE3=X-Press 2 - London Xpress
TTITLE4=Kathy Sledge - Another Star (Classic 12" Mix) 
TTITLE5=Shades Of Rhythm - Sound Of Eden
TTITLE6=Lil' Mo' Yang - Reach (Lil' More Mix)
TTITLE7=Joe T Vannelli Project - Sweetest Day Of May (Greed's Euphorik
TTITLE7=Vocal Mix)
TTITLE8=Sam Ellis - Club Lonely (Luv Dup Remix)
TTITLE9=S'Express - Theme From S'Express
TTITLE10=George Morel - Let's Groove
TTITLE11=Rhythm On The Loose - Break Of Dawn
TTITLE12=Atlantic Ocean - Waterfall (12" Original Netherlands Remix)
TTITLE13=O.T. Quartet - Hold That Sucker Down (Builds Like A Skyscrape
TTITLE13=r Mix)
TTITLE14=Subliminal Cuts - Le Voie Le Solei
TTITLE15=Hardrive - Deep Inside
TTITLE16=Bump - I'm Rushin (Martian Mix)
TTITLE17=Jam and Spoon - Stella
TTITLE18=Underworld - Cowgirl
TTITLE19=Prodigy (The) - Breathe
EXTD=CREAMCD4 (p) 2008
EXTT0=
EXTT1=
EXTT2=
EXTT3=
EXTT4=
EXTT5=
EXTT6=
EXTT7=
EXTT8=
EXTT9=
EXTT10=
EXTT11=
EXTT12=
EXTT13=
EXTT14=
EXTT15=
EXTT16=
EXTT17=
EXTT18=
EXTT19=
PLAYORDER=
